<svg width="34" height="19" viewBox="0 0 34 19" fill="none" xmlns="http://www.w3.org/2000/svg">
<path d="M1.19561 2.825C1.22894 2.575 1.33727 2.38333 1.52061 2.25C1.70394 2.1 1.88727 2.05 2.07061 2.1C2.22061 2.15 2.32061 2.26667 2.37061 2.45C2.42061 2.61667 2.44561 2.76667 2.44561 2.9C2.41227 3.2 2.38727 3.56667 2.37061 4C2.35394 4.41667 2.33727 4.84167 2.32061 5.275C2.30394 5.725 2.28727 6.15833 2.27061 6.575C2.27061 6.99167 2.27061 7.33333 2.27061 7.6C2.65394 7.55 3.17894 7.45833 3.84561 7.325C4.51227 7.19167 5.21227 7.05 5.94561 6.9C6.66227 6.76667 7.37061 6.63333 8.07061 6.5C8.77061 6.36667 9.34561 6.275 9.79561 6.225C9.84561 5.44167 9.88727 4.65833 9.92061 3.875C9.95394 3.09167 9.99561 2.275 10.0456 1.425C10.0456 1.24167 10.1206 1.11667 10.2706 1.05C10.4206 0.966665 10.5789 0.933332 10.7456 0.949998C10.9123 0.983332 11.0623 1.05 11.1956 1.15C11.3289 1.25 11.3956 1.38333 11.3956 1.55C11.3789 2.2 11.3539 2.85 11.3206 3.5C11.2873 4.15 11.2539 4.8 11.2206 5.45C11.5373 5.4 11.8789 5.34167 12.2456 5.275C12.6289 5.20833 13.0206 5.14167 13.4206 5.075C13.8039 4.99167 14.1873 4.91667 14.5706 4.85C14.9706 4.76667 15.3456 4.68333 15.6956 4.6C15.7956 4.58333 15.9289 4.61667 16.0956 4.7C16.2789 4.78333 16.3706 4.9 16.3706 5.05C16.3539 5.28333 16.2873 5.46667 16.1706 5.6C16.0706 5.71667 15.8623 5.81667 15.5456 5.9C15.2456 5.98333 14.9289 6.06667 14.5956 6.15C14.2623 6.23333 13.9289 6.31667 13.5956 6.4C13.2456 6.48333 12.9039 6.56667 12.5706 6.65C12.2373 6.73333 11.9289 6.80833 11.6456 6.875C11.4956 6.925 11.3706 7.00833 11.2706 7.125C11.1873 7.225 11.1289 7.35 11.0956 7.5C11.0623 7.85 11.0373 8.19167 11.0206 8.525C11.0206 8.85833 11.0206 9.19167 11.0206 9.525C11.0206 9.55833 11.0123 9.59167 10.9956 9.625C10.9956 9.64167 10.9956 9.65833 10.9956 9.675C10.9956 9.70833 10.9956 9.73333 10.9956 9.75C10.9956 9.76667 10.9956 9.78333 10.9956 9.8C11.2123 9.9 11.4123 10.0417 11.5956 10.225C11.7789 10.3917 11.8706 10.575 11.8706 10.775C11.8706 11.0917 11.8373 11.4417 11.7706 11.825C11.7039 12.1917 11.6289 12.55 11.5456 12.9C11.4456 13.25 11.3373 13.5583 11.2206 13.825C11.1206 14.0917 11.0373 14.2583 10.9706 14.325C10.8039 14.475 10.5706 14.6167 10.2706 14.75C9.98727 14.8833 9.67061 15.0083 9.32061 15.125C8.97061 15.2583 8.61227 15.3917 8.24561 15.525C7.87894 15.6583 7.53727 15.7917 7.22061 15.925C7.12061 15.975 7.02061 16.0667 6.92061 16.2C6.83727 16.3333 6.82894 16.4833 6.89561 16.65C6.92894 16.8 7.01227 16.9167 7.14561 17C7.29561 17.0667 7.47061 17.0917 7.67061 17.075C7.92061 17.0583 8.16227 17.0417 8.39561 17.025C8.64561 17.0083 8.88727 16.9917 9.12061 16.975C9.37061 16.9417 9.61227 16.9083 9.84561 16.875C10.0789 16.8417 10.3206 16.8 10.5706 16.75C10.6706 16.7333 10.7873 16.7 10.9206 16.65C11.0539 16.6 11.1956 16.55 11.3456 16.5C11.4789 16.45 11.6123 16.4083 11.7456 16.375C11.8789 16.325 12.0039 16.2917 12.1206 16.275C12.2706 16.275 12.4206 16.3333 12.5706 16.45C12.7206 16.55 12.8123 16.675 12.8456 16.825C12.8789 17.0083 12.8456 17.2167 12.7456 17.45C12.6623 17.6667 12.3456 17.8083 11.7956 17.875C11.4123 17.925 11.0289 17.9833 10.6456 18.05C10.2789 18.1 9.90394 18.15 9.52061 18.2C9.15394 18.2333 8.77894 18.2667 8.39561 18.3C8.02894 18.3167 7.66227 18.3083 7.29561 18.275C6.62894 18.2417 6.15394 18.0917 5.87061 17.825C5.58727 17.5417 5.42061 17.2 5.37061 16.8C5.32061 16.4 5.36227 16.0667 5.49561 15.8C5.64561 15.5333 5.85394 15.3167 6.12061 15.15C6.40394 14.9667 6.69561 14.8083 6.99561 14.675C7.31227 14.525 7.63727 14.3917 7.97061 14.275C8.28727 14.1417 8.60394 14.0167 8.92061 13.9C9.25394 13.7667 9.58727 13.625 9.92061 13.475C10.0373 13.1917 10.1373 12.825 10.2206 12.375C10.3206 11.925 10.4123 11.475 10.4956 11.025C10.2123 11.0583 9.94561 11.1083 9.69561 11.175C9.44561 11.225 9.17894 11.2917 8.89561 11.375C8.62894 11.4583 8.33727 11.55 8.02061 11.65C7.72061 11.75 7.38727 11.8583 7.02061 11.975C6.75394 12.075 6.45394 12.1333 6.12061 12.15C5.80394 12.15 5.62894 12.025 5.59561 11.775C5.54561 11.525 5.61227 11.3167 5.79561 11.15C5.97894 10.9833 6.19561 10.85 6.44561 10.75C6.99561 10.55 7.53727 10.3833 8.07061 10.25C8.60394 10.1 9.09561 9.975 9.54561 9.875V9.7C9.57894 9.31667 9.60394 8.94167 9.62061 8.575C9.65394 8.20833 9.68727 7.84167 9.72061 7.475C9.25394 7.50833 8.66227 7.59167 7.94561 7.725C7.24561 7.84167 6.52894 7.975 5.79561 8.125C5.06227 8.29167 4.35394 8.45 3.67061 8.6C2.98727 8.75 2.44561 8.85833 2.04561 8.925C1.71227 8.975 1.42061 8.89167 1.17061 8.675C0.937272 8.44167 0.837272 8.16667 0.870606 7.85C0.870606 7.55 0.878939 7.18333 0.895606 6.75C0.912272 6.3 0.928939 5.83333 0.945606 5.35C0.978939 4.88333 1.01227 4.425 1.04561 3.975C1.07894 3.525 1.12894 3.14167 1.19561 2.825ZM17.9063 8.25C17.623 8.28333 17.4063 8.24167 17.2563 8.125C17.1063 8.00833 17.023 7.875 17.0063 7.725C16.9897 7.575 17.0313 7.43333 17.1313 7.3C17.248 7.15 17.4313 7.05833 17.6813 7.025C17.9813 7.00833 18.3147 6.98333 18.6813 6.95C19.048 6.9 19.3897 6.85 19.7063 6.8C20.0397 6.76667 20.323 6.74167 20.5563 6.725C20.7897 6.70833 20.948 6.70833 21.0313 6.725C21.098 6.775 21.1647 6.825 21.2313 6.875C21.3147 6.925 21.3897 6.98333 21.4563 7.05C21.5063 7.05 21.548 7.04167 21.5813 7.025C21.6313 7.00833 21.6813 7 21.7313 7C22.0813 7 22.4397 6.98333 22.8063 6.95C23.1897 6.9 23.548 6.85833 23.8813 6.825C24.198 6.775 24.4647 6.74167 24.6813 6.725C24.9147 6.70833 25.073 6.70833 25.1563 6.725C25.373 6.825 25.548 6.98333 25.6813 7.2C25.8313 7.41667 25.8813 7.60833 25.8313 7.775C25.7313 8.025 25.6313 8.275 25.5313 8.525C25.4313 8.775 25.3313 9.03333 25.2313 9.3C25.1313 9.56667 25.0313 9.83333 24.9313 10.1C24.8313 10.35 24.7313 10.6083 24.6313 10.875C24.798 11.1417 24.9647 11.4 25.1313 11.65C25.3147 11.8833 25.4897 12.1167 25.6563 12.35C25.8397 12.5833 26.023 12.8167 26.2063 13.05C26.3897 13.2833 26.5897 13.5333 26.8063 13.8C26.9063 13.95 26.9397 14.1083 26.9063 14.275C26.873 14.425 26.798 14.55 26.6813 14.65C26.5647 14.75 26.423 14.8 26.2563 14.8C26.0897 14.7833 25.9313 14.675 25.7813 14.475C25.6313 14.3083 25.4813 14.1333 25.3313 13.95C25.198 13.75 25.0647 13.5583 24.9313 13.375C24.7813 13.175 24.6313 12.9833 24.4813 12.8C24.348 12.6167 24.2147 12.4333 24.0813 12.25C23.898 12.6833 23.7147 13.1083 23.5313 13.525C23.3647 13.9417 23.198 14.35 23.0313 14.75C22.9313 14.95 22.798 15.0833 22.6313 15.15C22.4647 15.2 22.3063 15.2 22.1563 15.15C22.0063 15.1 21.8897 15 21.8063 14.85C21.7397 14.7 21.7563 14.5083 21.8563 14.275C21.9063 14.1583 21.9563 14.0417 22.0063 13.925C22.0563 13.8083 22.1147 13.6833 22.1813 13.55C21.848 13.15 21.523 12.7667 21.2063 12.4C20.9063 12.0167 20.6063 11.65 20.3063 11.3C20.2063 11.5333 20.1063 11.7667 20.0063 12C19.9063 12.2333 19.8147 12.4667 19.7313 12.7C19.6313 12.9333 19.5313 13.175 19.4313 13.425C19.3313 13.6583 19.2397 13.8917 19.1563 14.125C19.073 14.325 18.9397 14.4583 18.7563 14.525C18.5897 14.575 18.4313 14.575 18.2813 14.525C18.1313 14.475 18.0147 14.375 17.9313 14.225C17.8647 14.075 17.8813 13.875 17.9813 13.625C18.5313 12.3417 18.9897 11.2583 19.3563 10.375C19.723 9.49167 20.0313 8.675 20.2813 7.925C20.1313 7.95833 19.948 7.99167 19.7313 8.025C19.5147 8.05833 19.2897 8.08333 19.0563 8.1C18.8063 8.13333 18.573 8.16667 18.3563 8.2C18.1563 8.21667 18.0063 8.23333 17.9063 8.25ZM21.5063 8.275C21.4063 8.55833 21.298 8.83333 21.1813 9.1C21.0813 9.36667 20.9813 9.625 20.8813 9.875C21.048 10.1083 21.2147 10.325 21.3813 10.525C21.548 10.725 21.7063 10.925 21.8563 11.125C22.0063 11.3083 22.1563 11.4917 22.3063 11.675C22.4563 11.8583 22.6063 12.0417 22.7563 12.225C23.1063 11.375 23.4147 10.5833 23.6813 9.85C23.9647 9.11667 24.2063 8.475 24.4063 7.925C24.2563 7.95833 24.1063 7.98333 23.9563 8C23.823 8.01667 23.6647 8.04167 23.4813 8.075C23.3147 8.09167 23.1147 8.11667 22.8813 8.15C22.6647 8.16667 22.4147 8.18333 22.1313 8.2C22.0813 8.21667 22.0313 8.23333 21.9813 8.25C21.9313 8.25 21.8813 8.25 21.8313 8.25C21.7813 8.26667 21.723 8.275 21.6563 8.275C21.6063 8.275 21.5563 8.275 21.5063 8.275ZM28.5313 5.175C28.5313 4.99167 28.598 4.86667 28.7313 4.8C28.8647 4.73333 29.0147 4.71667 29.1813 4.75C29.3313 4.76667 29.473 4.83333 29.6063 4.95C29.7397 5.05 29.8063 5.18333 29.8063 5.35C29.773 6.05 29.723 6.89167 29.6563 7.875C29.6063 8.84167 29.548 9.825 29.4813 10.825C29.548 10.775 29.6147 10.725 29.6813 10.675C29.7647 10.625 29.848 10.5917 29.9313 10.575C30.348 10.475 30.7647 10.4 31.1813 10.35C31.6147 10.3 32.123 10.2583 32.7063 10.225C32.873 10.225 33.023 10.275 33.1563 10.375C33.2897 10.475 33.348 10.5917 33.3313 10.725C33.3147 10.925 33.2563 11.0917 33.1563 11.225C33.073 11.3583 32.8813 11.45 32.5813 11.5C32.348 11.5333 32.1147 11.5667 31.8813 11.6C31.6647 11.6167 31.448 11.6417 31.2313 11.675C31.0147 11.6917 30.8063 11.7167 30.6063 11.75C30.4063 11.7833 30.223 11.825 30.0563 11.875C29.9063 11.925 29.7647 11.9917 29.6313 12.075C29.5147 12.1417 29.4313 12.2583 29.3813 12.425C29.3313 13.0917 29.2897 13.7167 29.2563 14.3C29.223 14.8833 29.2063 15.4 29.2063 15.85C29.1897 16.2333 29.098 16.5083 28.9313 16.675C28.7647 16.8417 28.5897 16.9167 28.4063 16.9C28.2063 16.9 28.0313 16.8167 27.8813 16.65C27.748 16.4833 27.7063 16.2583 27.7563 15.975C27.823 15.225 27.8897 14.375 27.9563 13.425C28.0397 12.475 28.1147 11.5167 28.1813 10.55C28.2313 9.56667 28.2813 8.60833 28.3313 7.675C28.398 6.74167 28.4647 5.90833 28.5313 5.175Z" fill="black"/>
</svg>
