<svg width="28" height="17" viewBox="0 0 28 17" fill="none" xmlns="http://www.w3.org/2000/svg">
<path d="M1.20391 3.075C2.02057 2.95833 2.70391 2.83333 3.25391 2.7C3.82057 2.55 4.46224 2.34167 5.17891 2.075C5.42891 1.99167 5.70391 1.98333 6.00391 2.05C6.32057 2.11667 6.47057 2.35833 6.45391 2.775C6.43724 3.075 6.42057 3.45 6.40391 3.9C6.38724 4.35 6.37891 4.81667 6.37891 5.3C6.77891 5.23333 7.17057 5.16667 7.55391 5.1C7.93724 5.01667 8.38724 4.91667 8.90391 4.8C9.00391 4.78333 9.14557 4.74167 9.32891 4.675C9.51224 4.59167 9.62057 4.48333 9.65391 4.35V4.4C9.65391 4.13333 9.66224 3.86667 9.67891 3.6C9.69557 3.31667 9.71224 3.03333 9.72891 2.75C9.74557 2.48333 9.76224 2.21667 9.77891 1.95C9.79557 1.66667 9.82057 1.38333 9.85391 1.1C9.85391 0.916666 9.92891 0.791666 10.0789 0.724999C10.2289 0.641666 10.3872 0.608333 10.5539 0.624999C10.7039 0.658332 10.8456 0.724999 10.9789 0.825C11.1122 0.924999 11.1789 1.05833 11.1789 1.225C11.1622 1.90833 11.1372 2.625 11.1039 3.375C11.0706 4.10833 11.0372 4.85 11.0039 5.6C10.9706 6.35 10.9372 7.09167 10.9039 7.825C10.8706 8.55833 10.8456 9.24167 10.8289 9.875C10.8122 10.175 10.7206 10.4 10.5539 10.55C10.4039 10.6833 10.2372 10.75 10.0539 10.75C9.87057 10.75 9.70391 10.6833 9.55391 10.55C9.42057 10.4 9.36224 10.1833 9.37891 9.9C9.37891 9.58333 9.38724 9.26667 9.40391 8.95C9.42057 8.63333 9.43724 8.31667 9.45391 8C9.47057 7.68333 9.48724 7.36667 9.50391 7.05C9.52057 6.73333 9.53724 6.41667 9.55391 6.1C9.27057 6.13333 8.98724 6.175 8.70391 6.225C8.43724 6.25833 8.17057 6.29167 7.90391 6.325C7.63724 6.375 7.37057 6.425 7.10391 6.475C6.83724 6.50833 6.57891 6.54167 6.32891 6.575C6.31224 6.69167 6.29557 6.80833 6.27891 6.925C6.27891 7.025 6.27891 7.11667 6.27891 7.2C6.27891 7.3 6.27891 7.39167 6.27891 7.475C6.27891 7.55833 6.27891 7.63333 6.27891 7.7C6.24557 7.98333 6.14557 8.26667 5.97891 8.55C5.81224 8.81667 5.57057 8.98333 5.25391 9.05C4.95391 9.11667 4.68724 9.175 4.45391 9.225C4.23724 9.25833 4.02057 9.3 3.80391 9.35C3.60391 9.4 3.38724 9.45 3.15391 9.5C2.93724 9.55 2.69557 9.61667 2.42891 9.7C2.16224 9.8 1.85391 9.78333 1.50391 9.65C1.15391 9.5 0.978906 9.29167 0.978906 9.025C0.96224 8.60833 0.953906 8.13333 0.953906 7.6C0.953906 7.05 0.96224 6.5 0.978906 5.95C0.995573 5.4 1.02057 4.875 1.05391 4.375C1.10391 3.875 1.15391 3.44167 1.20391 3.075ZM2.42891 4.175C2.39557 4.40833 2.36224 4.725 2.32891 5.125C2.31224 5.50833 2.29557 5.91667 2.27891 6.35C2.26224 6.76667 2.25391 7.16667 2.25391 7.55C2.25391 7.93333 2.27057 8.21667 2.30391 8.4L4.92891 7.775L5.07891 3.375C4.64557 3.575 4.26224 3.73333 3.92891 3.85C3.61224 3.95 3.11224 4.05833 2.42891 4.175ZM13.0789 1.7C13.0956 1.51667 13.1706 1.39167 13.3039 1.325C13.4539 1.24167 13.6122 1.20833 13.7789 1.225C13.9456 1.25833 14.0956 1.33333 14.2289 1.45C14.3622 1.55 14.4289 1.68333 14.4289 1.85C14.3789 3.18333 14.3206 4.55833 14.2539 5.975C14.1872 7.375 14.1289 8.71667 14.0789 10C14.0456 10.3167 13.9539 10.55 13.8039 10.7C13.6539 10.8333 13.4956 10.8917 13.3289 10.875C13.1456 10.875 12.9789 10.8083 12.8289 10.675C12.6956 10.525 12.6372 10.325 12.6539 10.075C12.6872 9.325 12.7206 8.58333 12.7539 7.85C12.7872 7.1 12.8206 6.375 12.8539 5.675C12.8872 4.975 12.9206 4.29167 12.9539 3.625C12.9872 2.95833 13.0289 2.31667 13.0789 1.7ZM6.75391 11.75C6.77057 11.5167 6.84557 11.35 6.97891 11.25C7.12891 11.1333 7.28724 11.0833 7.45391 11.1C7.60391 11.1167 7.73724 11.1917 7.85391 11.325C7.97057 11.4417 8.02891 11.6083 8.02891 11.825C8.01224 12.125 7.99557 12.4 7.97891 12.65C7.96224 12.9 7.94557 13.15 7.92891 13.4C7.89557 13.6333 7.87057 13.875 7.85391 14.125C7.85391 14.3583 7.85391 14.6083 7.85391 14.875C8.25391 14.8083 8.67057 14.7417 9.10391 14.675C9.53724 14.5917 9.97891 14.5167 10.4289 14.45C10.8622 14.3667 11.2956 14.2917 11.7289 14.225C12.1789 14.1583 12.6206 14.1 13.0539 14.05C13.2539 14.0333 13.4122 14.0833 13.5289 14.2C13.6456 14.3 13.7122 14.425 13.7289 14.575C13.7456 14.725 13.6956 14.875 13.5789 15.025C13.4789 15.175 13.3039 15.275 13.0539 15.325C12.2539 15.4917 11.3789 15.65 10.4289 15.8C9.47891 15.95 8.57057 16.0833 7.70391 16.2C7.35391 16.25 7.05391 16.1667 6.80391 15.95C6.57057 15.7167 6.46224 15.4417 6.47891 15.125C6.49557 14.825 6.51224 14.5417 6.52891 14.275C6.56224 14.0083 6.58724 13.7333 6.60391 13.45C6.62057 13.1833 6.63724 12.9167 6.65391 12.65C6.68724 12.3667 6.72057 12.0667 6.75391 11.75ZM25.0961 2.525C25.3294 2.525 25.4961 2.59167 25.5961 2.725C25.6961 2.84167 25.7461 2.975 25.7461 3.125C25.7461 3.275 25.6961 3.41667 25.5961 3.55C25.4961 3.68333 25.3711 3.75833 25.2211 3.775C24.8878 3.80833 24.5211 3.84167 24.1211 3.875C23.7378 3.90833 23.3378 3.95 22.9211 4C22.5044 4.05 22.1044 4.10833 21.7211 4.175C21.3378 4.24167 21.0044 4.325 20.7211 4.425C20.7044 4.55833 20.6878 4.69167 20.6711 4.825C20.6711 4.95833 20.6711 5.09167 20.6711 5.225C20.6544 5.35833 20.6461 5.49167 20.6461 5.625C20.6461 5.74167 20.6461 5.85833 20.6461 5.975C20.9628 5.95833 21.3211 5.925 21.7211 5.875C22.1211 5.80833 22.5211 5.75 22.9211 5.7C23.3211 5.65 23.7044 5.60833 24.0711 5.575C24.4544 5.54167 24.8044 5.525 25.1211 5.525C25.2544 5.54167 25.3544 5.60833 25.4211 5.725C25.5044 5.825 25.5544 5.95 25.5711 6.1C25.5711 6.23333 25.5378 6.35833 25.4711 6.475C25.4044 6.59167 25.2961 6.65833 25.1461 6.675C24.8128 6.725 24.4461 6.775 24.0461 6.825C23.6628 6.875 23.2711 6.925 22.8711 6.975C22.4711 7.025 22.0711 7.08333 21.6711 7.15C21.2878 7.2 20.9378 7.25833 20.6211 7.325C20.6044 7.65833 20.5961 7.98333 20.5961 8.3C20.5961 8.61667 20.6044 8.925 20.6211 9.225C20.8711 9.19167 21.1878 9.14167 21.5711 9.075C21.9544 8.99167 22.3461 8.90833 22.7461 8.825C23.1461 8.75833 23.5294 8.69167 23.8961 8.625C24.2794 8.54167 24.6044 8.475 24.8711 8.425C25.1711 8.375 25.3961 8.40833 25.5461 8.525C25.7128 8.64167 25.8044 8.78333 25.8211 8.95C25.8378 9.11667 25.7878 9.28333 25.6711 9.45C25.5711 9.6 25.4128 9.68333 25.1961 9.7C24.8628 9.75 24.4961 9.80833 24.0961 9.875C23.6961 9.94167 23.2878 10.0083 22.8711 10.075C22.4544 10.1417 22.0544 10.2167 21.6711 10.3C21.2878 10.3667 20.9461 10.425 20.6461 10.475C20.1461 10.575 19.7878 10.5 19.5711 10.25C19.3544 9.98333 19.2461 9.7 19.2461 9.4C19.2128 9 19.1961 8.5 19.1961 7.9C19.1961 7.28333 19.2128 6.68333 19.2461 6.1C19.2628 5.51667 19.2961 4.99167 19.3461 4.525C19.4128 4.04167 19.5044 3.725 19.6211 3.575C19.7544 3.40833 20.0378 3.25833 20.4711 3.125C20.9044 2.99167 21.3961 2.88333 21.9461 2.8C22.4961 2.71667 23.0544 2.65833 23.6211 2.625C24.1878 2.575 24.6794 2.54167 25.0961 2.525ZM18.4211 14.325C19.0378 14.175 19.7044 14.0333 20.4211 13.9C21.1544 13.7667 21.8878 13.65 22.6211 13.55C23.3544 13.45 24.0711 13.3667 24.7711 13.3C25.4878 13.2333 26.1544 13.1833 26.7711 13.15C27.0211 13.15 27.2044 13.2167 27.3211 13.35C27.4378 13.4833 27.4961 13.6417 27.4961 13.825C27.4961 13.9917 27.4294 14.1583 27.2961 14.325C27.1794 14.475 26.9961 14.55 26.7461 14.55C25.4461 14.6167 24.0628 14.7583 22.5961 14.975C21.1294 15.175 19.7961 15.375 18.5961 15.575C18.3461 15.625 18.1628 15.6 18.0461 15.5C17.9294 15.3833 17.8628 15.25 17.8461 15.1C17.8461 14.9333 17.8878 14.775 17.9711 14.625C18.0711 14.475 18.2211 14.375 18.4211 14.325Z" fill="black"/>
</svg>
